<?xml version="1.0" standalone="no"?>
<!DOCTYPE svg PUBLIC "-//W3C//DTD SVG 20010904//EN"
 "http://www.w3.org/TR/2001/REC-SVG-20010904/DTD/svg10.dtd">
<svg version="1.0" xmlns="http://www.w3.org/2000/svg"
 width="512.000000pt" height="512.000000pt" viewBox="0 0 512.000000 512.000000"
 preserveAspectRatio="xMidYMid meet">
<metadata>
Created by potrace 1.11, written by Peter Selinger 2001-2013
</metadata>
<g transform="translate(0.000000,512.000000) scale(0.100000,-0.100000)"
fill="#000000" stroke="none">
<path d="M2465 5109 c-17 -5 -55 -21 -84 -37 l-52 -29 105 -132 c57 -73 107
-133 110 -134 6 -2 205 260 212 278 2 6 -20 21 -49 34 -57 26 -185 37 -242 20z"/>
<path d="M2989 4980 c-84 -26 -129 -53 -202 -120 -67 -63 -166 -198 -201 -277
-11 -24 -22 -43 -25 -43 -3 1 -30 36 -59 80 -109 162 -242 281 -372 333 -87
35 -220 34 -290 -2 -150 -77 -236 -199 -245 -346 -15 -243 233 -506 705 -747
176 -90 250 -123 270 -119 8 1 78 25 155 54 163 59 349 151 461 227 72 48 244
205 244 222 0 4 14 29 30 55 92 145 95 341 7 479 -108 171 -310 257 -478 204z
m178 -264 c70 -36 114 -114 106 -190 -9 -90 -106 -210 -241 -300 -66 -43 -245
-137 -290 -151 -20 -6 -22 -4 -18 17 2 13 1 41 -3 63 -5 25 -2 59 7 90 29 104
120 294 171 358 104 130 177 161 268 113z m-1055 -47 c66 -50 123 -115 193
-219 68 -101 138 -237 129 -252 -3 -4 -1 -8 4 -8 5 0 9 -27 9 -59 l0 -59 -26
11 c-24 11 -70 36 -116 64 -11 7 -38 22 -60 34 -111 60 -271 191 -339 278 -27
35 -56 102 -56 131 0 38 44 95 90 118 38 19 46 19 86 7 24 -7 63 -28 86 -46z"/>
<path d="M880 4320 c-107 -55 -200 -100 -207 -100 -6 0 -13 -4 -15 -8 -2 -5
-100 -57 -217 -116 -118 -59 -222 -112 -230 -119 -8 -7 -22 -30 -32 -52 -17
-37 -19 -75 -19 -445 0 -370 2 -408 19 -445 10 -22 24 -45 32 -52 15 -12 245
-129 1499 -760 338 -170 624 -315 635 -321 11 -6 55 -28 98 -48 119 -57 124
-56 398 81 129 65 241 121 249 126 8 4 254 128 545 275 890 448 1259 636 1274
648 8 6 22 29 32 51 17 37 19 75 19 443 0 424 -1 438 -46 488 -11 11 -185 105
-389 209 -203 103 -395 201 -426 217 l-56 29 -359 -182 c-198 -100 -422 -213
-498 -251 l-139 -70 429 -215 c236 -118 433 -219 438 -223 9 -9 14 -806 5
-814 -2 -2 -90 -47 -195 -99 -105 -52 -200 -100 -210 -106 -11 -5 -33 -17 -50
-25 l-32 -15 0 405 c1 222 -1 406 -3 408 -2 2 -199 101 -437 221 l-433 218
-432 -217 c-237 -120 -434 -220 -436 -222 -3 -3 -5 -186 -4 -408 l0 -404 -46
22 c-67 32 -435 218 -440 222 -2 2 -4 185 -5 408 l-1 404 110 54 c61 29 112
55 115 58 3 3 148 77 323 164 174 88 317 162 317 165 0 5 -954 490 -979 498
-3 1 -94 -43 -201 -97z"/>
<path d="M390 2004 c0 -494 3 -708 11 -735 7 -21 24 -49 38 -62 22 -20 218
-137 414 -246 26 -15 56 -34 66 -42 9 -8 22 -15 27 -16 5 -1 119 -65 254 -143
294 -170 532 -307 658 -380 50 -29 92 -56 92 -60 0 -3 6 -7 13 -7 10 0 75 -36
304 -169 229 -134 237 -138 293 -138 50 -1 65 5 160 60 138 81 992 574 1050
606 25 14 80 46 123 72 43 25 82 46 87 46 5 0 15 6 22 13 11 10 162 99 408
239 225 129 263 154 288 186 l27 35 3 719 c1 395 0 718 -2 718 -3 0 -77 -36
-165 -81 -111 -55 -161 -85 -161 -97 -1 -9 -1 -262 0 -562 l0 -546 -56 -29
c-30 -17 -68 -36 -82 -44 -15 -8 -29 -17 -32 -20 -4 -5 -26 -18 -115 -65 -11
-6 -22 -14 -25 -17 -3 -3 -25 -17 -50 -30 -65 -37 -116 -66 -190 -109 -100
-58 -142 -82 -175 -100 -16 -9 -79 -45 -140 -81 -60 -36 -188 -110 -283 -165
-95 -54 -180 -104 -190 -109 -9 -6 -66 -39 -127 -73 -60 -35 -128 -74 -150
-87 -22 -13 -44 -24 -50 -25 -7 0 -10 211 -10 615 0 338 -3 615 -6 615 -4 0
-24 -7 -45 -16 -57 -24 -131 -28 -194 -11 -30 8 -62 16 -70 18 -12 3 -14 -34
-15 -256 0 -143 -4 -266 -9 -274 -6 -8 -5 -12 0 -8 5 3 9 -134 9 -339 0 -189
-4 -344 -8 -344 -6 0 -388 218 -457 261 -8 5 -82 48 -165 95 -82 47 -295 170
-473 272 -178 103 -344 199 -370 213 -26 14 -81 46 -122 71 l-75 44 -2 544
c-1 300 -3 552 -3 561 0 13 -151 96 -322 177 -5 2 -8 -310 -8 -694z"/>
</g>
</svg>
